<svg xmlns="http://www.w3.org/2000/svg" width="800" height="800">
  <svg xmlns="http://www.w3.org/2000/svg" width="800" height="800" fill="none" viewBox="0 0 800 800">
    <g clip-path="url(#clip0_983_37145)">
      <rect width="800" height="800" fill="#080808" rx="91"/>
      <g clip-path="url(#clip1_983_37145)">
        <mask id="SvgjsMask1005" width="648" height="415" x="76" y="192" maskUnits="userSpaceOnUse" style="mask-type:luminance">
          <path fill="#fff" d="M724 192H76v414.362h648V192Z"/>
        </mask>
        <g mask="url(#mask0_983_37145)">
          <path fill="#CCF8BB" fill-rule="evenodd" d="M655.497 566.591c-10.645 24.973-35.64 40.696-62.486 40.696H206.063c-26.846 0-51.377-15.723-62.486-40.696L81.5542 427.854c-8.3314-18.499-8.3314-38.847 0-57.345L144.04 232.234C155.149 207.261 179.68 192 206.063 192h386.948c26.846 0 51.378 15.724 62.486 40.696l62.486 138.275c8.331 18.499 8.331 38.847 0 57.345l-62.486 138.275ZM529.6 257.207v52.257h-25.92v-52.257h25.92Zm65.263 78.155H438.88v25.898H594.4v-25.898h.463ZM438.88 386.695H594.4v25.898H438.88v-25.898Zm0 51.795H594.4v25.898H438.88V438.49Zm90.72 103.591v-51.795h-25.92v52.257l25.92-.462Zm-246.703-64.744c43.509 0 77.76-35.147 77.76-77.693s-35.177-77.693-77.76-77.693c-43.508 0-77.76 35.147-77.76 77.693s34.714 77.693 77.76 77.693Z" clip-rule="evenodd"/>
        </g>
      </g>
    </g>
    <defs>
      <clipPath id="SvgjsClipPath1004">
        <path fill="#fff" d="M0 0h800v800H0z"/>
      </clipPath>
      <clipPath id="SvgjsClipPath1003">
        <path fill="#fff" d="M76 192h648v415H76z"/>
      </clipPath>
    </defs>
  </svg>
  <style>
    @media (prefers-color-scheme:light){:root{filter:none}}@media (prefers-color-scheme:dark){:root{filter:none}}
  </style>
</svg>